<?xml version="1.0" standalone="no"?><!DOCTYPE svg PUBLIC "-//W3C//DTD SVG 1.1//EN" "http://www.w3.org/Graphics/SVG/1.1/DTD/svg11.dtd"><svg t="1602567916417" class="icon" viewBox="0 0 1024 1024" version="1.1" xmlns="http://www.w3.org/2000/svg" p-id="14923" xmlns:xlink="http://www.w3.org/1999/xlink" width="200" height="200"><defs><style type="text/css"></style></defs><path d="M986.453333 544.426667c-1.706667-83.626667-69.973333-180.906667-160.426666-213.333334 15.36-22.186667 23.893333-47.786667 23.893333-76.8 0-75.093333-61.44-134.826667-134.826667-134.826666-27.306667 0-51.2 8.533333-71.68 20.48-34.133333-37.546667-85.333333-63.146667-139.946666-63.146667-58.026667 0-110.933333 25.6-145.066667 68.266667-17.066667-8.533333-37.546667-13.653333-58.026667-13.653334-75.093333 0-134.826667 61.44-134.826666 134.826667 0 25.6 6.826667 51.2 20.48 71.68-90.453333 29.013333-162.133333 126.293333-165.546667 209.92h-1.706667l1.706667 5.12 3.413333 3.413333c3.413333 5.12 87.04 117.76 223.573334 215.04 134.826667 97.28 245.76 133.12 250.88 133.12l6.826666 1.706667 6.826667-1.706667c5.12-1.706667 112.64-30.72 254.293333-134.826666 139.946667-102.4 215.04-211.626667 218.453334-216.746667l5.12-6.826667-3.413334-1.706666zM715.093333 170.666667c46.08 0 83.626667 37.546667 83.626667 83.626666s-37.546667 83.626667-83.626667 83.626667c-11.946667 0-23.893333-3.413333-34.133333-8.533333 6.826667-20.48 10.24-40.96 10.24-63.146667 0-30.72-6.826667-59.733333-20.48-85.333333 13.653333-5.12 27.306667-10.24 44.373333-10.24zM501.76 129.706667c76.8 0 138.24 61.44 138.24 138.24s-61.44 138.24-138.24 138.24-138.24-61.44-138.24-138.24 61.44-138.24 138.24-138.24z m-203.093333 54.613333c10.24 0 20.48 1.706667 30.72 5.12-10.24 23.893333-17.066667 51.2-17.066667 78.506667 0 27.306667 6.826667 54.613333 17.066667 78.506666-8.533333 3.413333-18.773333 5.12-30.72 5.12-46.08 0-83.626667-37.546667-83.626667-83.626666s37.546667-83.626667 83.626667-83.626667zM69.973333 539.306667c10.24-64.853333 75.093333-150.186667 155.306667-157.013334 20.48 13.653333 46.08 20.48 71.68 20.48 20.48 0 39.253333-5.12 58.026667-13.653333 10.24 13.653333 23.893333 23.893333 37.546666 34.133333C288.426667 460.8 209.92 551.253333 191.146667 665.6c-61.44-54.613333-104.106667-104.106667-121.173334-126.293333zM732.16 733.866667c-112.64 83.626667-204.8 116.053333-228.693333 124.586666-25.6-8.533333-119.466667-44.373333-228.693334-124.586666-13.653333-8.533333-25.6-18.773333-37.546666-29.013334 8.533333-143.36 119.466667-247.466667 264.533333-247.466666s256 107.52 264.533333 250.88c-11.946667 8.533333-22.186667 17.066667-34.133333 25.6z m80.213333-64.853334C793.6 552.96 716.8 460.8 609.28 424.96c18.773333-13.653333 34.133333-29.013333 47.786667-47.786667 17.066667 8.533333 37.546667 13.653333 58.026666 13.653334 23.893333 0 44.373333-5.12 64.853334-17.066667 83.626667 8.533333 150.186667 97.28 155.306666 163.84-13.653333 18.773333-56.32 71.68-122.88 131.413333z" fill="#8a8a8a" p-id="14924"></path></svg>